# xmcd
#
# Track frame offsets:
# 150
# 23374
# 54339
# 74309
# 104625
# 138195
# 161260
# 181355
# 202204
# 231629
# 251812
#
# Disc length: 3647 seconds
#
#
# Revision: 0
# Processed by: cddbd v1.4PL0 Copyright (c) Steve Scherf et al.
# Submitted via: FreeRIP 2.10 
#
DISCID=9a0e3d0b
DTITLE=Widespread Panic - Everyday
DYEAR=1900
DGENRE=
TTITLE0=Pleas
TTITLE1=Hatfield
TTITLE2=Wondering
TTITLE3=Papa's Home
TTITLE4=Diner
TTITLE5=Better Off
TTITLE6=Pickin' Up the Pieces
TTITLE7=Henry Parsons Died
TTITLE8=Pilgrims
TTITLE9=Postcard
TTITLE10=Dream Song
EXTD=
EXTT0=
EXTT1=
EXTT2=
EXTT3=
EXTT4=
EXTT5=
EXTT6=
EXTT7=
EXTT8=
EXTT9=
EXTT10=
PLAYORDER=
